<?xml version="1.0" encoding="UTF-8"?>
<!DOCTYPE svg PUBLIC "-//W3C//DTD SVG 1.1//EN" "http://www.w3.org/Graphics/SVG/1.1/DTD/svg11.dtd">
<!-- Creator: CorelDRAW 2019 (64-Bit) -->
<svg xmlns="http://www.w3.org/2000/svg" xml:space="preserve" width="48.3812mm" height="42.3332mm" version="1.1" style="shape-rendering:geometricPrecision; text-rendering:geometricPrecision; image-rendering:optimizeQuality; fill-rule:evenodd; clip-rule:evenodd"
viewBox="0 0 182.38 159.58"
 xmlns:xlink="http://www.w3.org/1999/xlink">
 <defs>
  <style type="text/css">
   <![CDATA[
    .fil0 {fill:#361311}
   ]]>
  </style>
 </defs>
 <g id="Capa_x0020_1">
  <metadata id="CorelCorpID_0Corel-Layer"/>
  <path class="fil0" d="M140.58 60.79l-106.39 0c-6.28,0 -11.4,5.11 -11.4,11.4l0 7.6c0,22.6 10.41,43.45 27.84,56.99l-46.83 0c-1.53,0 -2.92,0.93 -3.51,2.35 -0.59,1.42 -0.27,3.05 0.82,4.14l8.52 8.53c5.03,5.02 11.7,7.79 18.81,7.79l117.89 0c7.11,0 13.78,-2.77 18.82,-7.79l8.52 -8.53c1.09,-1.09 1.41,-2.72 0.82,-4.14 -0.59,-1.42 -1.98,-2.35 -3.51,-2.35l-46.85 0c2.92,-2.26 5.64,-4.73 8.15,-7.38l1.41 -0.28c1.99,-0.38 48.69,-9.54 48.69,-34.13 0,-7.64 -2.48,-13.11 -7.35,-16.25 -7.03,-4.52 -16.93,-2.57 -23.05,-0.63l0 -5.91c0,-6.28 -5.11,-11.4 -11.4,-11.4zm-69.21 -31.82c6.18,-7.72 6.18,-19.81 0,-27.53 -1.31,-1.64 -3.69,-1.91 -5.34,-0.59 -1.63,1.31 -1.9,3.7 -0.59,5.33 3.91,4.89 3.91,13.15 -0.01,18.05 -6.19,7.72 -6.19,19.81 0,27.53 0.75,0.94 1.85,1.43 2.97,1.43 0.83,0 1.67,-0.27 2.37,-0.83 1.64,-1.31 1.91,-3.71 0.59,-5.34 -3.92,-4.89 -3.92,-13.15 0.01,-18.05zm22.77 -0.01c6.19,-7.72 6.19,-19.81 0,-27.53 -1.31,-1.64 -3.7,-1.91 -5.34,-0.59 -1.64,1.31 -1.91,3.71 -0.59,5.34 3.92,4.89 3.92,13.15 -0.01,18.05 -6.18,7.72 -6.18,19.81 0,27.53 0.75,0.94 1.85,1.43 2.97,1.43 0.83,0 1.66,-0.27 2.37,-0.84 1.64,-1.31 1.91,-3.7 0.59,-5.34 -3.91,-4.89 -3.91,-13.15 0.01,-18.05zm22.83 0c6.18,-7.72 6.18,-19.81 0,-27.53 -1.31,-1.64 -3.69,-1.91 -5.34,-0.59 -1.64,1.31 -1.91,3.7 -0.59,5.34 3.91,4.89 3.91,13.15 -0.01,18.05 -6.19,7.72 -6.19,19.81 0,27.53 0.75,0.94 1.85,1.43 2.97,1.43 0.83,0 1.67,-0.27 2.37,-0.84 1.64,-1.31 1.91,-3.71 0.59,-5.34 -3.92,-4.89 -3.92,-13.15 0.01,-18.05zm22.92 90.88c6.6,-9.89 10.72,-21.4 11.8,-33.59 4.85,-1.81 14.27,-4.31 19.22,-1.12 2.59,1.66 3.86,4.89 3.86,9.85 0,12.56 -20.92,21.02 -34.89,24.86zm-12.14 3.24c-0.19,0.17 -0.35,0.35 -0.5,0.55 -4.82,5.21 -10.55,9.67 -17.04,13.14l-45.66 0c-21.09,-11.28 -34.15,-33.03 -34.15,-56.99l0 -7.6c0,-2.1 1.7,-3.8 3.8,-3.8l106.39 -0c2.1,0 3.8,1.7 3.8,3.8l0 7.6c0,16.33 -6.08,31.64 -16.63,43.3zm-64.32 21.29c0.12,0.01 0.24,0.01 0.37,0l98.01 0 -2.04 2.04c-3.59,3.59 -8.37,5.56 -13.44,5.56l-117.9 0c-5.07,0 -9.85,-1.98 -13.44,-5.56l-2.04 -2.04 50.47 0z"/>
 </g>
</svg>
