<?xml version="1.0" encoding="UTF-8"?>
<!DOCTYPE svg PUBLIC "-//W3C//DTD SVG 1.1//EN" "http://www.w3.org/Graphics/SVG/1.1/DTD/svg11.dtd">
<!-- Creator: CorelDRAW 2019 (64-Bit) -->
<svg xmlns="http://www.w3.org/2000/svg" xml:space="preserve" width="42.3334mm" height="35.9798mm" version="1.1" style="shape-rendering:geometricPrecision; text-rendering:geometricPrecision; image-rendering:optimizeQuality; fill-rule:evenodd; clip-rule:evenodd"
viewBox="0 0 175.31 149"
 xmlns:xlink="http://www.w3.org/1999/xlink">
 <defs>
  <style type="text/css">
   <![CDATA[
    .fil0 {fill:#361311}
   ]]>
  </style>
 </defs>
 <g id="Capa_x0020_1">
  <metadata id="CorelCorpID_0Corel-Layer"/>
  <path id="Shape" class="fil0" d="M168.43 125.63l-19.71 0c7.39,-3.18 13.66,-8.48 18.03,-15.23 0.93,-1.55 1.05,-3.45 0.32,-5.11 -0.19,-0.44 -0.43,-0.96 -0.7,-1.54 3.47,-5.01 6.05,-10.58 7.64,-16.46 1.34,-6.37 1.65,-12.92 0.91,-19.39 -0.3,-2.74 -2.15,-5.06 -4.76,-5.96 -2.96,-14.22 -6.95,-16.49 -8.3,-17.24 -1.72,-0.98 -3.79,-1.13 -5.62,-0.4 -7.23,2.75 -7.26,9.22 -7.28,14.92 0,1.36 -0.04,2.76 -0.13,4.15 -2.81,0.66 -5.07,2.72 -5.98,5.45 -0.58,1.7 -1.39,3.32 -2.41,4.81 -1.21,-0.64 -2.45,-1.21 -3.72,-1.71 -1.21,-0.45 -2.54,-0.44 -3.75,0.01l-15 5.73c-1.18,0.46 -2.16,1.31 -2.78,2.41 -0.69,1.27 -1.32,2.57 -1.87,3.91 -0.78,-0.24 -1.55,-0.53 -2.3,-0.86l0 -33.46c0,-3.23 -2.62,-5.84 -5.84,-5.84l-70.12 0c-3.23,0 -5.84,2.62 -5.84,5.84l0 3.98c-2.7,-0.7 -5.48,-1.06 -8.27,-1.06 -20.95,0 -20.95,23.02 -20.95,30.59 0,16.91 8.22,27.84 20.95,27.84 3.37,-0.02 6.72,-0.5 9.97,-1.43 2.16,6.48 6.34,12.1 11.93,16.03l-24.29 0c-1.69,-0.14 -3.36,0.39 -4.65,1.49 -1.29,1.1 -2.09,2.66 -2.21,4.35l0 5.84c0,6.55 6.48,11.69 14.75,11.69l134.1 0c8.27,0 14.75,-5.13 14.75,-11.69l0 -5.84c-0.13,-1.69 -0.93,-3.26 -2.21,-4.35 -1.29,-1.1 -2.96,-1.63 -4.65,-1.49zm-86.62 -93.49c0,1.61 1.31,2.92 2.92,2.92 1.61,0 2.92,-1.31 2.92,-2.92 -0.02,-2.06 0.81,-4.04 2.28,-5.48 4.75,-5.16 4.75,-13.1 0,-18.26 -1.48,-1.44 -2.3,-3.42 -2.28,-5.48 0,-1.61 -1.31,-2.92 -2.92,-2.92 -1.61,0 -2.92,1.31 -2.92,2.92 -0.03,3.39 1.25,6.65 3.56,9.13 1.46,1.45 2.28,3.42 2.28,5.48 0,2.06 -0.82,4.03 -2.28,5.48 -2.31,2.48 -3.59,5.74 -3.56,9.13l0 -0zm-35.06 0c0,1.61 1.31,2.92 2.92,2.92 1.61,0 2.92,-1.31 2.92,-2.92 -0.02,-2.06 0.81,-4.04 2.28,-5.48 4.75,-5.16 4.75,-13.1 0,-18.26 -1.48,-1.44 -2.3,-3.42 -2.28,-5.48 0,-1.61 -1.31,-2.92 -2.92,-2.92 -1.61,0 -2.92,1.31 -2.92,2.92 -0.03,3.39 1.25,6.65 3.56,9.13 1.46,1.45 2.28,3.42 2.28,5.48 0,2.06 -0.82,4.03 -2.28,5.48 -2.31,2.48 -3.59,5.74 -3.56,9.13l0 -0zm17.53 0c0,1.61 1.31,2.92 2.92,2.92 1.61,0 2.92,-1.31 2.92,-2.92 -0.02,-2.06 0.81,-4.04 2.28,-5.48 4.75,-5.16 4.75,-13.1 0,-18.26 -1.48,-1.44 -2.3,-3.42 -2.28,-5.48 0,-1.61 -1.31,-2.92 -2.92,-2.92 -1.61,0 -2.92,1.31 -2.92,2.92 -0.03,3.39 1.25,6.65 3.56,9.13 1.46,1.45 2.28,3.42 2.28,5.48 0,2.06 -0.82,4.03 -2.28,5.48 -2.31,2.48 -3.59,5.74 -3.56,9.13l0 -0zm94.04 17.61c0.22,-0.12 0.48,-0.1 0.69,0.04 0.5,0.28 2.9,2.12 5.1,11.79 -2.46,0.1 -5.64,0.32 -9.35,0.8 0.04,-1.09 0.05,-2.15 0.05,-3.14 0.01,-6.05 0.31,-8.27 3.51,-9.48l0 0zm-9.9 20.85c0.3,-0.87 1.05,-1.5 1.96,-1.65 0.54,-0.11 1.08,-0.19 1.67,-0.29 5.1,-0.86 10.26,-1.31 15.44,-1.35l0.19 0c0.71,-0.05 1.34,0.46 1.45,1.17 0.67,5.82 0.41,11.7 -0.78,17.43 -1.1,4.17 -2.81,8.15 -5.07,11.82 -4.42,-8.18 -10.5,-15.34 -17.85,-21.04 1.26,-1.89 2.27,-3.94 3,-6.09l0 0zm-28.19 12.45l14.65 -5.59c15.64,6.15 25.13,26.21 26.88,29.98 -1.62,2.79 -6.82,9.84 -20.19,14.94 -4.59,1.8 -9.42,2.9 -14.33,3.26l-3.85 0c-2.04,-0.09 -4.06,-0.46 -6,-1.08 -0.17,-0.72 -0.39,-1.7 -0.62,-2.88 -1.39,-7.24 -3.82,-25.42 3.45,-38.62l0.01 0zm-17.8 38.07c2.88,1.4 5.88,2.54 8.95,3.42 0.09,0.41 0.17,0.76 0.24,1.08l-14.34 0c1.87,-1.32 3.59,-2.83 5.14,-4.51l0 0zm7.81 -3.09c-3.93,-1.3 -7.63,-3.22 -10.96,-5.68 -4.36,-3.65 -8.06,-8 -10.96,-12.88 -0.35,-0.75 -0.13,-1.63 0.53,-2.13 0.04,-0.04 0.08,-0.07 0.11,-0.11 4.03,-3.47 8.32,-6.63 12.83,-9.44 0.46,-0.29 0.93,-0.6 1.49,-0.93 0.68,-0.44 1.55,-0.46 2.25,-0.05 1.83,1.16 3.81,2.06 5.89,2.67 -2.28,9.35 -2.68,19.05 -1.17,28.55l0 0zm-25.29 -39.94c0.09,-0.31 0.33,-0.55 0.64,-0.65 3.1,-1.17 4.51,0.23 8.12,4.85 0.62,0.79 1.28,1.64 2,2.49 -3.18,2.14 -5.81,4.12 -7.79,5.71 -3.04,-6.77 -3.58,-10.82 -2.97,-12.4zm-55.73 13.57c-2.6,1.17 -5.42,1.79 -8.27,1.83 -2.22,0 -3.42,-5.31 -3.42,-10.31 0,-13.06 1.97,-13.06 3.42,-13.06 2.99,-0.12 5.93,0.84 8.27,2.7l0 18.84zm-23.37 -8.47c0,-11.53 1.72,-24.75 15.1,-24.75 2.81,-0.01 5.6,0.42 8.27,1.29l0 6.28c-2.6,-1.17 -5.42,-1.76 -8.27,-1.72 -8.55,0 -9.26,8.94 -9.26,18.9 0,10.12 3.46,16.16 9.26,16.16 2.82,-0.03 5.61,-0.52 8.27,-1.46l0 1.46c0.01,1.53 0.14,3.05 0.37,4.56 -2.8,0.83 -5.71,1.26 -8.64,1.28 -9.46,0 -15.1,-8.22 -15.1,-22l0 0.01zm29.9 22.06c-0.46,-1.94 -0.68,-3.92 -0.68,-5.91l0 -49.67 70.12 0 0 31.1c-1.53,-0.14 -3.07,0.16 -4.43,0.88 -0.84,-0.96 -1.66,-1.96 -2.43,-2.95 -3.31,-4.24 -7.42,-9.53 -14.81,-6.72 -1.85,0.68 -3.31,2.14 -4.01,3.99 -1.52,3.92 -0.2,10.11 3.97,18.79 -1.53,2.36 -1.58,5.38 -0.13,7.79 3.27,5.48 7.45,10.36 12.36,14.43 0.51,0.39 1.04,0.75 1.57,1.12 -4.89,4.84 -11.5,7.55 -18.38,7.54l-17.53 0c-12.26,0.05 -22.91,-8.43 -25.61,-20.39l0 0.01zm133.71 32.07c0,3.17 -4.09,5.84 -8.91,5.84l-134.1 0c-4.82,0 -8.91,-2.68 -8.91,-5.84l0 -5.58c0.31,-0.19 0.66,-0.28 1.02,-0.27l149.88 0c0.36,-0.01 0.71,0.08 1.02,0.27l0 5.58z"/>
 </g>
</svg>
