<?xml version="1.0" encoding="UTF-8"?>
<!DOCTYPE svg PUBLIC "-//W3C//DTD SVG 1.1//EN" "http://www.w3.org/Graphics/SVG/1.1/DTD/svg11.dtd">
<!-- Creator: CorelDRAW 2019 (64-Bit) -->
<svg xmlns="http://www.w3.org/2000/svg" xml:space="preserve" width="5.9267mm" height="5.9268mm" version="1.1" style="shape-rendering:geometricPrecision; text-rendering:geometricPrecision; image-rendering:optimizeQuality; fill-rule:evenodd; clip-rule:evenodd"
viewBox="0 0 5.2 5.2"
 xmlns:xlink="http://www.w3.org/1999/xlink">
 <defs>
  <style type="text/css">
   <![CDATA[
    .fil0 {fill:#361311}
   ]]>
  </style>
 </defs>
 <g id="Capa_x0020_1">
  <metadata id="CorelCorpID_0Corel-Layer"/>
  <path class="fil0" d="M4.28 2.6c0,-0.93 -0.75,-1.68 -1.68,-1.68 -0.93,0 -1.68,0.75 -1.68,1.68 0,0.93 0.75,1.68 1.68,1.68 0.93,0 1.68,-0.75 1.68,-1.68l0 0zm-0.03 -1.9c-0.15,0 -0.27,0.12 -0.27,0.27 0,0.15 0.12,0.27 0.27,0.27 0.15,0 0.27,-0.12 0.27,-0.27 0,-0.15 -0.12,-0.27 -0.27,-0.27l0 0zm-3.02 -0.39l2.74 0c0.51,0 0.92,0.41 0.92,0.92l0 2.74c0,0.51 -0.41,0.92 -0.92,0.92l-2.74 0c-0.51,0 -0.92,-0.41 -0.92,-0.92l0 -2.74c0,-0.51 0.41,-0.92 0.92,-0.92l0 0zm2.74 -0.31l-2.74 0c-0.68,0 -1.23,0.55 -1.23,1.23l0 2.74c0,0.67 0.55,1.23 1.23,1.23l2.74 0c0.68,0 1.23,-0.55 1.23,-1.23l0 -2.74c0,-0.68 -0.55,-1.23 -1.23,-1.23l0 0zm-2.7 2.6c0,-0.73 0.59,-1.33 1.33,-1.33 0.74,0 1.33,0.6 1.33,1.33 0,0.74 -0.59,1.33 -1.33,1.33 -0.73,0 -1.33,-0.59 -1.33,-1.33l0 0z"/>
 </g>
</svg>
