<?xml version="1.0" encoding="UTF-8"?>
<!DOCTYPE svg PUBLIC "-//W3C//DTD SVG 1.1//EN" "http://www.w3.org/Graphics/SVG/1.1/DTD/svg11.dtd">
<!-- Creator: CorelDRAW 2019 (64-Bit) -->
<svg xmlns="http://www.w3.org/2000/svg" xml:space="preserve" width="43.4096mm" height="16.0303mm" version="1.1" style="shape-rendering:geometricPrecision; text-rendering:geometricPrecision; image-rendering:optimizeQuality; fill-rule:evenodd; clip-rule:evenodd"
viewBox="0 0 578.33 213.57"
 xmlns:xlink="http://www.w3.org/1999/xlink">
 <defs>
  <style type="text/css">
   <![CDATA[
    .fil0 {fill:#ECE8E8;fill-rule:nonzero}
   ]]>
  </style>
 </defs>
 <g id="Capa_x0020_1">
  <metadata id="CorelCorpID_0Corel-Layer"/>
  <path class="fil0" d="M58.72 110.22c-11.14,0 -21.18,-2.34 -30.11,-7 -8.94,-4.67 -15.94,-11.19 -21.01,-19.58 -5.07,-8.38 -7.6,-17.89 -7.6,-28.53 0,-10.64 2.54,-20.15 7.6,-28.54 5.07,-8.38 12.07,-14.91 21.01,-19.57 8.93,-4.67 18.97,-7 30.11,-7 10.24,0 19.37,1.81 27.41,5.42 8.03,3.61 14.66,8.84 19.87,15.66l-22.43 20.03c-6.53,-8.23 -14.2,-12.35 -23.04,-12.35 -7.43,0 -13.4,2.38 -17.92,7.15 -4.52,4.77 -6.78,11.17 -6.78,19.2 0,8.03 2.26,14.43 6.78,19.2 4.52,4.77 10.49,7.15 17.92,7.15 8.84,0 16.51,-4.11 23.04,-12.35l22.43 20.03c-5.22,6.83 -11.85,12.05 -19.87,15.66 -8.03,3.61 -17.17,5.42 -27.41,5.42zm373.06 29.28l0 0c0.44,0.1 0.44,0.77 0,1.91 -0.47,1.14 -1.41,2.58 -2.84,4.35 -1.64,1.91 -4.35,4.02 -8.17,6.39 -3.78,2.34 -8.16,4.49 -13.11,6.46 -4.99,1.94 -9.97,3.35 -14.99,4.15 -5.05,0.84 -9.67,0.63 -13.85,-0.54 -4.35,-1.37 -6.89,-4.25 -7.53,-8.63 -0.33,-2.48 -0.17,-4.92 0.5,-7.33 0.77,-2.51 2.04,-4.68 3.75,-6.59 1.74,-1.87 3.88,-3.31 6.42,-4.28 2.41,-0.87 4.92,-1.2 7.5,-1 2.58,0.2 4.68,1 6.32,2.38 0.27,0.17 0.4,0.47 0.4,0.87 0,0.4 -0.07,0.77 -0.2,1.17 -0.33,1.1 -0.87,1.64 -1.61,1.57 -0.77,-0.07 -1.61,-0.37 -2.61,-0.87 -0.7,-0.4 -1.51,-0.74 -2.34,-1.04 -0.84,-0.3 -1.74,-0.37 -2.64,-0.27 -2.54,0.4 -4.68,1.74 -6.39,4.05 -1.37,1.87 -2.27,3.98 -2.78,6.26 -0.5,2.27 -0.27,4.35 0.64,6.19 1.24,2.34 3.41,3.75 6.56,4.22 3.14,0.44 6.76,0.23 10.84,-0.7 4.08,-0.9 8.23,-2.24 12.41,-3.95 4.18,-1.74 8,-3.58 11.51,-5.52 3.48,-1.91 6.19,-3.68 8.1,-5.32 1.94,-1.71 3.08,-2.81 3.41,-3.35 0.2,-0.2 0.33,-0.34 0.44,-0.44 0.1,-0.1 0.2,-0.13 0.27,-0.13zm59.39 2.14l0 0c0.5,-0.7 1.07,-1.24 1.67,-1.57 0.57,-0.34 0.94,-0.34 1.07,0 0.13,0.33 -0.2,1.1 -0.97,2.34 -1.77,2.64 -4.35,5.12 -7.76,7.46 -3.38,2.34 -7.16,4.35 -11.27,6.02 -4.12,1.67 -8.13,2.78 -12.05,3.28 -3.92,0.54 -7.26,0.27 -9.97,-0.77 -2.71,-1.04 -4.38,-3.11 -5.02,-6.19 -2.31,3.75 -5.02,6.66 -8.16,8.73 -3.11,2.11 -6.09,2.98 -8.9,2.64 -3.21,-0.44 -5.35,-1.67 -6.42,-3.61 -1.07,-1.97 -1.44,-4.22 -1.07,-6.76 0.34,-2.54 1.1,-4.99 2.28,-7.26 0.94,-1.77 2.21,-3.41 3.85,-4.92 1.64,-1.47 3.31,-2.68 5.08,-3.51 2.24,-1.1 4.45,-1.61 6.73,-1.5 2.24,0.07 4.65,0.8 7.19,2.18 0,0 0.03,-0.03 0.1,-0.17 0,-0.27 0.07,-0.57 0.13,-0.94 0.1,-0.37 0.33,-0.67 0.67,-0.94 0.43,-0.33 1,-0.6 1.71,-0.77 0.67,-0.2 1.34,-0.23 2.01,-0.1 1.04,0.17 1.71,0.7 1.94,1.54 0.27,0.87 0.33,1.81 0.17,2.81 -0.17,1 -0.33,1.87 -0.54,2.61 -0.07,0.14 -0.1,0.23 -0.1,0.37 -1.04,4.32 -0.67,7.36 1.17,9.07 1.84,1.74 4.48,2.54 8,2.41 3.48,-0.13 7.19,-0.87 11.11,-2.21 3.92,-1.34 7.5,-2.95 10.71,-4.79 3.18,-1.87 5.42,-3.68 6.66,-5.45zm-60.09 16.16l0 0c1.37,0.94 2.84,0.84 4.42,-0.27 1.57,-1.14 3.08,-2.71 4.58,-4.82 1.51,-2.07 2.75,-4.18 3.75,-6.26 0.97,-2.11 1.54,-3.68 1.67,-4.72 -3.15,-1.71 -5.82,-2.01 -8.06,-0.94 -2.21,1.07 -3.95,2.81 -5.19,5.19 -1.24,2.41 -1.97,4.75 -2.14,7.06 -0.2,2.34 0.13,3.92 0.97,4.75zm105.97 -7.93l0 0c-3.35,4.45 -6.53,7.3 -9.54,8.57 -2.98,1.3 -5.72,1.57 -8.16,0.9 -2.44,-0.7 -4.55,-1.74 -6.32,-3.18 -1.77,-1.44 -3.11,-2.68 -4.02,-3.75 -0.27,-0.3 -0.5,-0.57 -0.7,-0.77 5.76,10.58 9.57,19.98 11.48,28.14 1.91,8.17 2.38,14.93 1.47,20.28 -0.9,5.35 -2.71,9.17 -5.39,11.38 -2.68,2.21 -5.72,2.71 -9.07,1.4 -3.38,-1.27 -6.59,-4.45 -9.67,-9.54 -3.08,-5.12 -5.42,-12.31 -7.09,-21.62 -1.67,-9.3 -2.11,-20.91 -1.34,-34.77 0.8,-13.85 3.31,-30.15 7.56,-48.92 1.04,-4.42 2.54,-9.6 4.45,-15.53 1.94,-5.92 4.32,-11.54 7.19,-16.9 2.88,-5.39 6.32,-9.54 10.31,-12.48 1.71,-1.17 3.58,-1.94 5.69,-2.34 5.35,-0.9 9.13,-0.3 11.38,1.87 2.21,2.14 3.28,5.35 3.15,9.6 -0.13,4.25 -1.14,9.1 -3.01,14.62 -1.84,5.49 -4.18,11.18 -6.96,17.1 -2.78,5.89 -5.69,11.58 -8.77,17 -3.08,5.42 -5.89,10.17 -8.43,14.25 -2.54,4.08 -4.55,7.09 -5.99,8.97 -0.37,0.6 -0.8,1.2 -1.27,1.87 -0.27,0.33 -0.5,0.7 -0.77,1.07 4.68,6.72 8.83,11.34 12.45,13.82 3.58,2.51 6.73,3.58 9.37,3.28 2.64,-0.27 4.89,-1.24 6.69,-2.88 1.84,-1.64 3.35,-3.28 4.52,-4.89 0.6,-0.8 1.1,-1.41 1.57,-1.87 0.47,-0.47 0.8,-0.67 1.07,-0.6 1,0.2 1.2,0.9 0.63,2.07 -0.53,1.17 -1.37,2.44 -2.47,3.82zm-38.45 -20.48l0 0c-0.27,1.87 -0.2,3.11 0.2,3.61 0.4,0.54 1.24,-0.17 2.54,-2.04 1.97,-2.74 4.42,-6.53 7.36,-11.28 2.95,-4.78 5.99,-10.07 9.17,-15.89 3.18,-5.82 6.02,-11.68 8.57,-17.63 2.54,-5.96 4.38,-11.48 5.49,-16.63 1.1,-5.12 1.07,-9.4 -0.1,-12.88 -0.5,-1.44 -1.44,-2.31 -2.74,-2.64 -1.3,-0.33 -2.71,-0.1 -4.22,0.67 -3.11,1.84 -5.99,5.05 -8.6,9.67 -2.64,4.62 -4.95,9.97 -6.99,16.13 -2.01,6.16 -3.75,12.42 -5.22,18.77 -1.47,6.36 -2.68,12.21 -3.58,17.53 -0.94,5.35 -1.54,9.54 -1.87,12.61zm11.88 80.17l0 0c2.74,-1.17 4.28,-3.88 4.58,-8.13 0.33,-4.25 -0.13,-9.3 -1.37,-15.19 -1.24,-5.89 -2.91,-11.85 -4.99,-17.9 -2.11,-6.02 -4.22,-11.44 -6.32,-16.2 -2.14,-4.78 -3.88,-8.2 -5.25,-10.2 -0.84,10.64 -0.87,20.21 -0.03,28.71 0.8,8.5 2.07,15.69 3.78,21.61 1.67,5.92 3.45,10.37 5.29,13.35 1.81,2.98 3.25,4.28 4.32,3.95zm64.91 -63.51l0 0c0.57,-0.33 1.17,-0.57 1.74,-0.74 0.6,-0.17 0.97,-0.13 1.14,0.03 0.17,0.2 -0.07,0.7 -0.74,1.47 -2.07,2.38 -4.55,4.52 -7.4,6.42 -2.84,1.94 -5.76,3.58 -8.67,4.95 -2.38,1.04 -4.85,1.87 -7.46,2.51 -2.61,0.6 -5.19,0.74 -7.76,0.4 -2.54,-0.37 -4.85,-1.51 -6.96,-3.41 -2.48,-2.48 -3.81,-5.62 -4.05,-9.5 -0.23,-3.85 0.67,-7.09 2.68,-9.7 2.68,-3.01 6.09,-4.92 10.17,-5.79 4.08,-0.84 7.76,-0.17 11.01,1.97 1.57,1.1 2.21,2.41 1.91,3.88 -0.27,1.47 -1.07,2.84 -2.34,4.12 -1.27,1.27 -2.71,2.24 -4.25,2.88 -2.38,0.94 -4.48,1.1 -6.32,0.53 -1.87,-0.53 -3.31,-1.27 -4.38,-2.21 -0.7,0.27 -1.17,1.3 -1.37,3.15 -0.43,3.41 0.64,6.19 3.25,8.33 2.14,1.64 4.89,2.07 8.2,1.34 3.28,-0.77 6.66,-2.07 10.14,-3.91 3.44,-1.87 6.52,-3.65 9.2,-5.35 0.87,-0.47 1.61,-0.9 2.28,-1.37zm-21.68 -8.63l0 0c-0.4,-0.54 -1.04,-0.74 -1.91,-0.64 -0.87,0.1 -1.81,0.37 -2.74,0.84 -0.94,0.47 -1.77,0.94 -2.44,1.41 -0.7,0.5 -1,0.84 -0.94,1.04 0,0.13 0.07,0.33 0.23,0.64 0.17,0.3 0.4,0.6 0.74,0.94 0.33,0.33 0.77,0.57 1.34,0.7 0.54,0.1 1.24,0.07 2.11,-0.1 1.37,-0.4 2.31,-0.9 2.88,-1.54 0.57,-0.6 0.87,-1.24 0.94,-1.84 0.07,-0.63 0,-1.1 -0.2,-1.44zm-0.87 -19.31c0.27,-0.4 0.64,-0.64 1.1,-0.74 0.5,-0.1 0.97,-0.13 1.44,-0.13 0.13,0 0.23,0 0.3,0 0.2,0.03 0.4,0.07 0.67,0.07 1.1,0.27 1.74,0.67 1.87,1.14 0.13,0.5 -0.03,1 -0.44,1.57 -0.43,0.57 -0.87,1.07 -1.34,1.51 -1.17,1.27 -2.28,2.68 -3.31,4.22 -1,1.37 -1.84,2.48 -2.58,3.25 -0.7,0.8 -1.27,0.9 -1.64,0.4 -0.47,-0.33 -0.7,-0.73 -0.74,-1.17 -0.03,-0.47 0,-0.94 0.13,-1.37 0.4,-1.44 0.94,-2.78 1.61,-4.01 0.7,-1.27 1.44,-2.48 2.21,-3.65 0.27,-0.33 0.5,-0.67 0.7,-1.07zm-332.71 -115.72l0 105.4 -35.54 0 0 -38.85 -32.83 0 0 38.85 -35.54 0 0 -105.4 35.54 0 0 37.34 32.83 0 0 -37.34 35.54 0zm17.16 0l35.54 0 0 105.4 -35.54 0 0 -105.4zm52.7 0l35.53 0 0 77.85 47.58 0 0 27.56 -83.12 0 0 -105.4zm92.91 0l35.54 0 0 77.85 47.58 0 0 27.56 -83.12 0 0 -105.4z"/>
 </g>
</svg>
