<?xml version="1.0" encoding="UTF-8"?>
<!DOCTYPE svg PUBLIC "-//W3C//DTD SVG 1.1//EN" "http://www.w3.org/Graphics/SVG/1.1/DTD/svg11.dtd">
<!-- Creator: CorelDRAW 2019 (64-Bit) -->
<svg xmlns="http://www.w3.org/2000/svg" xml:space="preserve" width="32.5189mm" height="12.0086mm" version="1.1" style="shape-rendering:geometricPrecision; text-rendering:geometricPrecision; image-rendering:optimizeQuality; fill-rule:evenodd; clip-rule:evenodd"
viewBox="0 0 324.55 119.85"
 xmlns:xlink="http://www.w3.org/1999/xlink">
 <defs>
  <style type="text/css">
   <![CDATA[
    .fil0 {fill:#ECE8E8;fill-rule:nonzero}
   ]]>
  </style>
 </defs>
 <g id="Capa_x0020_1">
  <metadata id="CorelCorpID_0Corel-Layer"/>
  <path class="fil0" d="M32.95 61.85c-6.25,0 -11.89,-1.31 -16.9,-3.93 -5.01,-2.62 -8.94,-6.28 -11.79,-10.99 -2.84,-4.7 -4.27,-10.04 -4.27,-16.01 0,-5.97 1.42,-11.31 4.27,-16.01 2.84,-4.7 6.77,-8.37 11.79,-10.99 5.01,-2.62 10.65,-3.93 16.9,-3.93 5.75,0 10.87,1.01 15.38,3.04 4.51,2.03 8.22,4.96 11.15,8.79l-12.59 11.24c-3.66,-4.62 -7.97,-6.93 -12.93,-6.93 -4.17,0 -7.52,1.34 -10.06,4.01 -2.53,2.68 -3.8,6.27 -3.8,10.77 0,4.51 1.27,8.1 3.8,10.77 2.53,2.68 5.89,4.01 10.06,4.01 4.96,0 9.27,-2.31 12.93,-6.93l12.59 11.24c-2.93,3.83 -6.65,6.76 -11.15,8.79 -4.51,2.03 -9.63,3.04 -15.38,3.04zm90.58 -60.5l0 59.15 -19.94 0 0 -21.8 -18.42 0 0 21.8 -19.94 0 0 -59.15 19.94 0 0 20.96 18.42 0 0 -20.96 19.94 0zm9.63 0l19.94 0 0 59.15 -19.94 0 0 -59.15zm29.57 0l19.94 0 0 43.69 26.7 0 0 15.46 -46.64 0 0 -59.15zm52.14 0l19.94 0 0 43.69 26.7 0 0 15.46 -46.64 0 0 -59.15z"/>
  <path class="fil0" d="M242.31 78.29l0 0c0.24,0.06 0.24,0.43 0,1.07 -0.26,0.64 -0.79,1.45 -1.6,2.44 -0.92,1.07 -2.44,2.25 -4.58,3.59 -2.12,1.31 -4.58,2.52 -7.36,3.62 -2.8,1.09 -5.6,1.88 -8.41,2.33 -2.84,0.47 -5.43,0.36 -7.77,-0.3 -2.44,-0.77 -3.87,-2.39 -4.23,-4.85 -0.19,-1.39 -0.09,-2.76 0.28,-4.11 0.43,-1.41 1.14,-2.63 2.1,-3.7 0.98,-1.05 2.18,-1.86 3.6,-2.4 1.35,-0.49 2.76,-0.68 4.21,-0.56 1.45,0.11 2.63,0.56 3.55,1.33 0.15,0.09 0.23,0.26 0.23,0.49 0,0.23 -0.04,0.43 -0.11,0.66 -0.19,0.62 -0.49,0.92 -0.9,0.88 -0.43,-0.04 -0.9,-0.21 -1.47,-0.49 -0.39,-0.23 -0.85,-0.41 -1.31,-0.58 -0.47,-0.17 -0.98,-0.21 -1.48,-0.15 -1.43,0.23 -2.63,0.98 -3.59,2.27 -0.77,1.05 -1.28,2.23 -1.56,3.51 -0.28,1.28 -0.15,2.44 0.36,3.47 0.69,1.31 1.92,2.1 3.68,2.37 1.76,0.24 3.79,0.13 6.08,-0.39 2.29,-0.51 4.62,-1.26 6.97,-2.22 2.35,-0.98 4.49,-2.01 6.46,-3.1 1.95,-1.07 3.47,-2.06 4.54,-2.99 1.09,-0.96 1.73,-1.58 1.92,-1.88 0.11,-0.11 0.19,-0.19 0.24,-0.24 0.06,-0.06 0.11,-0.07 0.15,-0.07zm33.33 1.2l0 0c0.28,-0.39 0.6,-0.69 0.94,-0.88 0.32,-0.19 0.53,-0.19 0.6,0 0.07,0.19 -0.11,0.62 -0.54,1.31 -1,1.48 -2.44,2.87 -4.36,4.19 -1.9,1.31 -4.02,2.44 -6.33,3.38 -2.31,0.94 -4.56,1.56 -6.76,1.84 -2.2,0.3 -4.07,0.15 -5.59,-0.43 -1.52,-0.58 -2.46,-1.75 -2.82,-3.47 -1.3,2.1 -2.82,3.74 -4.58,4.9 -1.75,1.18 -3.42,1.67 -5,1.48 -1.8,-0.24 -3,-0.94 -3.6,-2.03 -0.6,-1.11 -0.81,-2.37 -0.6,-3.79 0.19,-1.43 0.62,-2.8 1.28,-4.07 0.53,-1 1.24,-1.92 2.16,-2.76 0.92,-0.83 1.86,-1.5 2.85,-1.97 1.26,-0.62 2.5,-0.9 3.77,-0.84 1.26,0.04 2.61,0.45 4.04,1.22 0,0 0.02,-0.02 0.06,-0.09 0,-0.15 0.04,-0.32 0.07,-0.53 0.06,-0.21 0.19,-0.38 0.38,-0.53 0.24,-0.19 0.56,-0.34 0.96,-0.43 0.38,-0.11 0.75,-0.13 1.13,-0.06 0.58,0.09 0.96,0.39 1.09,0.86 0.15,0.49 0.19,1.01 0.09,1.58 -0.09,0.56 -0.19,1.05 -0.3,1.46 -0.04,0.08 -0.06,0.13 -0.06,0.21 -0.58,2.42 -0.38,4.13 0.66,5.09 1.03,0.98 2.52,1.43 4.49,1.35 1.95,-0.08 4.04,-0.49 6.23,-1.24 2.2,-0.75 4.21,-1.65 6.01,-2.69 1.78,-1.05 3.04,-2.06 3.74,-3.06zm-33.72 9.07l0 0c0.77,0.53 1.6,0.47 2.48,-0.15 0.88,-0.64 1.73,-1.52 2.57,-2.7 0.85,-1.16 1.54,-2.35 2.1,-3.51 0.54,-1.18 0.86,-2.07 0.94,-2.65 -1.77,-0.96 -3.27,-1.13 -4.53,-0.53 -1.24,0.6 -2.22,1.58 -2.91,2.91 -0.69,1.35 -1.11,2.67 -1.2,3.96 -0.11,1.31 0.08,2.2 0.54,2.67zm59.47 -4.45l0 0c-1.88,2.5 -3.66,4.09 -5.35,4.81 -1.67,0.73 -3.21,0.88 -4.58,0.51 -1.37,-0.39 -2.55,-0.98 -3.55,-1.78 -1,-0.81 -1.75,-1.5 -2.25,-2.1 -0.15,-0.17 -0.28,-0.32 -0.39,-0.43 3.23,5.93 5.37,11.21 6.44,15.79 1.07,4.58 1.33,8.38 0.83,11.38 -0.51,3 -1.52,5.14 -3.02,6.38 -1.5,1.24 -3.21,1.52 -5.09,0.79 -1.9,-0.71 -3.7,-2.5 -5.43,-5.35 -1.73,-2.87 -3.04,-6.91 -3.98,-12.13 -0.94,-5.22 -1.18,-11.74 -0.75,-19.51 0.45,-7.77 1.86,-16.92 4.24,-27.45 0.58,-2.48 1.43,-5.39 2.5,-8.71 1.09,-3.32 2.42,-6.48 4.04,-9.48 1.61,-3.02 3.55,-5.35 5.78,-7 0.96,-0.66 2.01,-1.09 3.19,-1.31 3,-0.51 5.13,-0.17 6.38,1.05 1.24,1.2 1.84,3 1.76,5.39 -0.07,2.39 -0.64,5.11 -1.69,8.21 -1.03,3.08 -2.35,6.27 -3.91,9.6 -1.56,3.3 -3.19,6.5 -4.92,9.54 -1.73,3.04 -3.3,5.71 -4.73,8 -1.43,2.29 -2.55,3.98 -3.36,5.03 -0.21,0.34 -0.45,0.68 -0.71,1.05 -0.15,0.19 -0.28,0.39 -0.43,0.6 2.63,3.77 4.96,6.37 6.99,7.75 2.01,1.41 3.77,2.01 5.26,1.84 1.48,-0.15 2.74,-0.69 3.76,-1.61 1.03,-0.92 1.88,-1.84 2.53,-2.74 0.34,-0.45 0.62,-0.79 0.88,-1.05 0.26,-0.26 0.45,-0.38 0.6,-0.34 0.56,0.11 0.68,0.51 0.36,1.16 -0.3,0.66 -0.77,1.37 -1.39,2.14zm-21.58 -11.49l0 0c-0.15,1.05 -0.11,1.75 0.11,2.03 0.22,0.3 0.69,-0.09 1.43,-1.14 1.11,-1.54 2.48,-3.66 4.13,-6.33 1.65,-2.68 3.36,-5.65 5.14,-8.92 1.78,-3.27 3.38,-6.55 4.81,-9.9 1.43,-3.34 2.46,-6.44 3.08,-9.33 0.62,-2.87 0.6,-5.28 -0.06,-7.23 -0.28,-0.81 -0.81,-1.3 -1.54,-1.48 -0.73,-0.19 -1.52,-0.06 -2.37,0.38 -1.75,1.03 -3.36,2.84 -4.83,5.43 -1.48,2.59 -2.78,5.6 -3.92,9.05 -1.13,3.46 -2.1,6.97 -2.93,10.53 -0.83,3.57 -1.5,6.85 -2.01,9.84 -0.52,3.01 -0.86,5.35 -1.05,7.08zm6.67 44.99l0 0c1.54,-0.66 2.4,-2.18 2.57,-4.56 0.19,-2.38 -0.08,-5.22 -0.77,-8.52 -0.69,-3.31 -1.63,-6.65 -2.8,-10.05 -1.18,-3.38 -2.37,-6.42 -3.55,-9.09 -1.2,-2.68 -2.18,-4.6 -2.95,-5.73 -0.47,5.97 -0.49,11.34 -0.02,16.11 0.45,4.77 1.16,8.81 2.12,12.13 0.94,3.32 1.93,5.82 2.97,7.49 1.01,1.67 1.82,2.4 2.42,2.22zm36.43 -35.64l0 0c0.32,-0.19 0.66,-0.32 0.98,-0.41 0.34,-0.09 0.54,-0.07 0.64,0.02 0.09,0.11 -0.04,0.39 -0.41,0.83 -1.16,1.33 -2.55,2.53 -4.15,3.6 -1.6,1.09 -3.23,2.01 -4.86,2.78 -1.33,0.58 -2.72,1.05 -4.19,1.41 -1.46,0.34 -2.91,0.41 -4.36,0.23 -1.43,-0.21 -2.72,-0.85 -3.91,-1.92 -1.39,-1.39 -2.14,-3.15 -2.27,-5.33 -0.13,-2.16 0.38,-3.98 1.5,-5.45 1.5,-1.69 3.42,-2.76 5.71,-3.25 2.29,-0.47 4.36,-0.09 6.18,1.11 0.88,0.62 1.24,1.35 1.07,2.18 -0.15,0.83 -0.6,1.6 -1.31,2.31 -0.71,0.71 -1.52,1.26 -2.39,1.61 -1.33,0.53 -2.52,0.62 -3.55,0.3 -1.05,-0.3 -1.86,-0.71 -2.46,-1.24 -0.4,0.15 -0.66,0.73 -0.77,1.77 -0.24,1.92 0.36,3.47 1.82,4.68 1.2,0.92 2.74,1.16 4.6,0.75 1.84,-0.43 3.74,-1.16 5.69,-2.2 1.93,-1.05 3.66,-2.05 5.16,-3 0.49,-0.26 0.9,-0.51 1.28,-0.77zm-12.17 -4.84l0 0c-0.23,-0.3 -0.58,-0.41 -1.07,-0.36 -0.49,0.06 -1.01,0.21 -1.54,0.47 -0.53,0.26 -1,0.53 -1.37,0.79 -0.39,0.28 -0.56,0.47 -0.52,0.58 0,0.08 0.04,0.19 0.13,0.36 0.09,0.17 0.23,0.34 0.41,0.53 0.19,0.19 0.43,0.32 0.75,0.39 0.3,0.06 0.69,0.04 1.18,-0.06 0.77,-0.22 1.3,-0.51 1.61,-0.86 0.32,-0.34 0.49,-0.69 0.53,-1.03 0.04,-0.36 0,-0.62 -0.11,-0.81zm-0.49 -10.83c0.15,-0.23 0.36,-0.36 0.62,-0.41 0.28,-0.06 0.54,-0.07 0.81,-0.07 0.07,0 0.13,0 0.17,0 0.11,0.02 0.23,0.04 0.38,0.04 0.62,0.15 0.98,0.38 1.05,0.64 0.07,0.28 -0.02,0.56 -0.24,0.88 -0.24,0.32 -0.49,0.6 -0.75,0.85 -0.66,0.71 -1.28,1.5 -1.86,2.37 -0.56,0.77 -1.03,1.39 -1.45,1.82 -0.4,0.45 -0.71,0.51 -0.92,0.22 -0.26,-0.19 -0.39,-0.41 -0.41,-0.66 -0.02,-0.26 0,-0.53 0.07,-0.77 0.23,-0.81 0.53,-1.56 0.9,-2.25 0.39,-0.71 0.81,-1.39 1.24,-2.05 0.15,-0.19 0.28,-0.38 0.39,-0.6z"/>
 </g>
</svg>
