<?xml version="1.0" encoding="UTF-8"?>
<!DOCTYPE svg PUBLIC "-//W3C//DTD SVG 1.1//EN" "http://www.w3.org/Graphics/SVG/1.1/DTD/svg11.dtd">
<!-- Creator: CorelDRAW 2019 (64-Bit) -->
<svg xmlns="http://www.w3.org/2000/svg" xml:space="preserve" width="42.3334mm" height="42.3334mm" version="1.1" style="shape-rendering:geometricPrecision; text-rendering:geometricPrecision; image-rendering:optimizeQuality; fill-rule:evenodd; clip-rule:evenodd"
viewBox="0 0 154.17 154.17"
 xmlns:xlink="http://www.w3.org/1999/xlink">
 <defs>
  <style type="text/css">
   <![CDATA[
    .fil0 {fill:#361311}
   ]]>
  </style>
 </defs>
 <g id="Capa_x0020_1">
  <metadata id="CorelCorpID_0Corel-Layer"/>
  <path class="fil0" d="M150.33 26.78c-5.04,-7.2 -14.29,-12.22 -21.23,-13.69 -0.25,-0.22 -0.5,-0.45 -0.76,-0.67 -8.18,-6.87 -20.2,-8.7 -28.57,-8.19 -2.37,-1.83 -5.1,-3.08 -8.19,-3.73 -11.31,-2.39 -24.59,4.02 -33.18,10.66 -1.73,-0.68 -3.61,-0.91 -5.66,-0.7 -11.47,1.2 -21.18,5.7 -28.87,13.39 -7.69,7.69 -12.2,17.41 -13.4,28.87 -0.21,2.05 0.02,3.93 0.69,5.66 -6.65,8.6 -13.05,21.87 -10.66,33.18 0.65,3.09 1.9,5.82 3.73,8.19 -0.51,8.36 1.32,20.42 8.21,28.6 0.21,0.25 0.43,0.49 0.65,0.73 1.46,6.94 6.49,16.2 13.7,21.24 3.63,2.54 7.57,3.84 11.56,3.84 1.11,0 2.23,-0.1 3.34,-0.31 3.59,-0.66 8.28,-3.31 10.18,-12.21 1.2,-5.62 0.85,-11.6 0.55,-14.62 2.27,-4.75 4.07,-13.11 4.67,-16.13 0.55,-0.39 1.07,-0.8 1.58,-1.24 3.49,-3.06 7.79,-9.99 9.02,-19.8 5.1,-0.88 9.81,-3.52 14.24,-7.94 4.43,-4.43 7.07,-9.14 7.95,-14.24 9.22,-1.18 16.49,-5.25 19.79,-9.01 0.44,-0.5 0.85,-1.03 1.24,-1.57 2.76,-0.55 11.32,-2.37 16.14,-4.67 1.41,0.14 3.45,0.29 5.81,0.29 2.7,0 5.8,-0.2 8.81,-0.84 8.9,-1.9 11.56,-6.58 12.22,-10.18 0.94,-5.11 -0.29,-10.26 -3.54,-14.92l-0 -0zm-19.52 2.6c0.97,11.99 -2.59,15.55 -5.79,17.31 -2.38,1.31 -7.1,2.64 -11.07,3.58 0.47,-3.62 -0.14,-9.6 -1.84,-17.86 -1.72,-8.35 -4.13,-16.6 -5.86,-20.07 -0.36,-0.73 -0.75,-1.42 -1.16,-2.09 6.75,0.42 14.28,2.48 19.39,6.78 3.81,3.2 5.94,7.35 6.34,12.34l0 0zm-120.55 75.7c0.67,0.41 1.36,0.8 2.09,1.16 3.47,1.73 11.72,4.15 20.07,5.86 6.47,1.33 11.54,2 15.17,2 1.01,0 1.9,-0.05 2.68,-0.16 -0.92,3.86 -2.26,8.67 -3.58,11.07 -1.76,3.2 -5.32,6.76 -17.31,5.79 -4.98,-0.4 -9.13,-2.53 -12.33,-6.32 -4.3,-5.11 -6.37,-12.66 -6.79,-19.41l-0 0zm30.35 42.86c-3.53,0.65 -7.02,-0.21 -10.37,-2.54 -3.55,-2.48 -6.5,-6.34 -8.54,-10.24 2.23,0.89 4.62,1.44 7.19,1.65 1.39,0.11 2.88,0.19 4.43,0.19 4.46,0 9.35,-0.69 13.34,-3.3 -0.14,6.66 -1.7,13.44 -6.06,14.24zm37.05 -70.28c-6.11,6.11 -12.58,7.85 -20.37,5.48 -1.59,-0.48 -3.27,0.41 -3.76,2 -0.48,1.59 0.41,3.27 2,3.76 2.07,0.63 4.08,1.03 6.03,1.2 -1.12,7.14 -4.2,12.69 -6.87,15.04 -1.21,1.07 -2.64,1.93 -4.48,2.7 -1.14,0.48 -6.5,0.44 -16.58,-1.63 -7.77,-1.6 -15.58,-3.85 -18.59,-5.35 -4.83,-2.42 -7.66,-5.86 -8.64,-10.52 -1.74,-8.27 2.76,-18.96 8.51,-26.89 0.77,0.66 1.63,1.29 2.6,1.89 4.22,2.62 8.5,5.73 12.64,8.73l1.12 0.81c1.35,0.98 3.23,0.68 4.21,-0.67 0.98,-1.35 0.67,-3.23 -0.67,-4.21l-1.12 -0.81c-4.23,-3.07 -8.6,-6.24 -13,-8.97 -3.85,-2.39 -4.47,-4.47 -4.23,-6.85 1.05,-10.06 4.97,-18.55 11.66,-25.24 6.69,-6.69 15.18,-10.61 25.24,-11.66 2.38,-0.25 4.46,0.38 6.85,4.23 2.74,4.41 5.91,8.79 8.98,13.02 11.82,16.3 22.03,30.37 8.45,43.95l0 0zm12.44 -16.1c-0.18,-2 -0.59,-4.05 -1.25,-6.17 -2.61,-8.45 -8.8,-16.97 -14.78,-25.22 -3.01,-4.15 -6.12,-8.44 -8.74,-12.66 -0.6,-0.97 -1.23,-1.83 -1.89,-2.6 7.93,-5.75 18.63,-10.26 26.89,-8.51 4.66,0.98 8.1,3.81 10.51,8.64 1.5,3 3.75,10.82 5.35,18.59 2.08,10.08 2.11,15.44 1.63,16.58 -0.78,1.84 -1.64,3.27 -2.7,4.48 -2.36,2.68 -7.89,5.76 -15.03,6.87l0 0zm57.84 -20.96c-0.8,4.36 -7.58,5.92 -14.24,6.06 3.53,-5.38 3.55,-12.37 3.11,-17.77 -0.21,-2.57 -0.76,-4.96 -1.65,-7.19 3.9,2.03 7.75,4.98 10.23,8.53 2.34,3.35 3.2,6.84 2.55,10.38l0 0z"/>
 </g>
</svg>
